<svg width="250" height="53" viewBox="0 0 250 53" fill="none" xmlns="http://www.w3.org/2000/svg">
<rect y="0.395996" width="52" height="52" rx="15" fill="#EBD96B"/>
<path d="M31.5122 27.4585L32.2065 22.9341H27.8652V19.998C27.8652 18.7603 28.4717 17.5537 30.416 17.5537H32.3896V13.7017C32.3896 13.7017 30.5986 13.396 28.8862 13.396C25.311 13.396 22.9741 15.563 22.9741 19.4858V22.9341H19V27.4585H22.9741V38.396H27.8652V27.4585H31.5122Z" fill="black"/>
<rect x="66" y="0.395996" width="52" height="52" rx="15" fill="#EBD96B"/>
<path d="M91.946 20.7268C88.8406 20.7268 86.3357 23.2317 86.3357 26.3372C86.3357 29.4426 88.8406 31.9475 91.946 31.9475C95.0515 31.9475 97.5564 29.4426 97.5564 26.3372C97.5564 23.2317 95.0515 20.7268 91.946 20.7268ZM91.946 29.9846C89.9392 29.9846 88.2986 28.3489 88.2986 26.3372C88.2986 24.3254 89.9343 22.6897 91.946 22.6897C93.9578 22.6897 95.5935 24.3254 95.5935 26.3372C95.5935 28.3489 93.9529 29.9846 91.946 29.9846ZM99.0945 20.4973C99.0945 21.2249 98.5085 21.8059 97.7859 21.8059C97.0584 21.8059 96.4773 21.22 96.4773 20.4973C96.4773 19.7747 97.0632 19.1887 97.7859 19.1887C98.5085 19.1887 99.0945 19.7747 99.0945 20.4973ZM102.81 21.8254C102.727 20.0725 102.327 18.5198 101.043 17.2405C99.7634 15.9612 98.2107 15.5608 96.4578 15.4729C94.6511 15.3704 89.2361 15.3704 87.4294 15.4729C85.6814 15.5559 84.1287 15.9563 82.8445 17.2356C81.5603 18.5149 81.1648 20.0676 81.0769 21.8206C80.9744 23.6272 80.9744 29.0422 81.0769 30.8489C81.1599 32.6018 81.5603 34.1545 82.8445 35.4338C84.1287 36.7131 85.6765 37.1135 87.4294 37.2014C89.2361 37.304 94.6511 37.304 96.4578 37.2014C98.2107 37.1184 99.7634 36.718 101.043 35.4338C102.322 34.1545 102.722 32.6018 102.81 30.8489C102.913 29.0422 102.913 23.6321 102.81 21.8254ZM100.476 32.7874C100.095 33.7444 99.3582 34.4817 98.3962 34.8674C96.9558 35.4387 93.5378 35.3069 91.946 35.3069C90.3542 35.3069 86.9314 35.4338 85.4958 34.8674C84.5388 34.4866 83.8015 33.7493 83.4158 32.7874C82.8445 31.3469 82.9763 27.929 82.9763 26.3372C82.9763 24.7454 82.8494 21.3225 83.4158 19.887C83.7966 18.9299 84.5339 18.1926 85.4958 17.8069C86.9363 17.2356 90.3542 17.3674 91.946 17.3674C93.5378 17.3674 96.9607 17.2405 98.3962 17.8069C99.3533 18.1877 100.091 18.925 100.476 19.887C101.048 21.3274 100.916 24.7454 100.916 26.3372C100.916 27.929 101.048 31.3518 100.476 32.7874Z" fill="black"/>
<rect x="132" y="0.395996" width="52" height="52" rx="15" fill="#EBD96B"/>
<path d="M170.43 21.4563C170.446 21.6783 170.446 21.9004 170.446 22.1225C170.446 28.8959 165.291 36.7005 155.868 36.7005C152.965 36.7005 150.268 35.8598 148 34.4004C148.412 34.448 148.809 34.4639 149.237 34.4639C151.633 34.4639 153.838 33.6549 155.598 32.2748C153.346 32.2272 151.458 30.752 150.808 28.7215C151.125 28.769 151.442 28.8008 151.775 28.8008C152.235 28.8008 152.695 28.7373 153.124 28.6263C150.776 28.1504 149.015 26.0882 149.015 23.5978V23.5343C149.697 23.915 150.49 24.153 151.331 24.1847C149.951 23.2646 149.047 21.6942 149.047 19.9175C149.047 18.9658 149.301 18.0933 149.745 17.3319C152.267 20.441 156.058 22.4714 160.31 22.6936C160.23 22.3128 160.183 21.9163 160.183 21.5197C160.183 18.6961 162.467 16.396 165.306 16.396C166.782 16.396 168.114 17.0146 169.05 18.014C170.208 17.7919 171.318 17.3636 172.302 16.7767C171.921 17.9665 171.112 18.9658 170.049 19.6003C171.081 19.4893 172.08 19.2037 173 18.8072C172.302 19.8224 171.43 20.7265 170.43 21.4563Z" fill="black"/>
<rect x="198" y="0.395996" width="52" height="52" rx="15" fill="#EBD96B"/>
<path d="M218.875 34.396H215.477V21.7163H218.875V34.396ZM215.277 18.4351C215.277 17.9272 215.445 17.5093 215.781 17.1812C216.125 16.853 216.59 16.689 217.176 16.689C217.754 16.689 218.215 16.853 218.559 17.1812C218.902 17.5093 219.074 17.9272 219.074 18.4351C219.074 18.9507 218.898 19.3726 218.547 19.7007C218.203 20.0288 217.746 20.1929 217.176 20.1929C216.605 20.1929 216.145 20.0288 215.793 19.7007C215.449 19.3726 215.277 18.9507 215.277 18.4351ZM225.273 21.7163L225.378 23.1812C226.285 22.0483 227.5 21.4819 229.023 21.4819C230.367 21.4819 231.367 21.8765 232.023 22.6655C232.679 23.4546 233.015 24.6343 233.031 26.2046V34.396H229.644V26.2866C229.644 25.5679 229.488 25.0483 229.175 24.728C228.863 24.3999 228.343 24.2358 227.617 24.2358C226.664 24.2358 225.949 24.6421 225.472 25.4546V34.396H222.085V21.7163H225.273Z" fill="black"/>
</svg>
